<svg xmlns="http://www.w3.org/2000/svg" width="119.979" height="90.5" viewBox="0 0 119.979 90.5">
  <g id="xz" transform="translate(-1263.539 -542)">
    <path id="x" fill="#c2c7d0" transform="translate(1261 621.987)" d="M3.418-1.66a17.419,17.419,0,0,1-.781-7.227,29.807,29.807,0,0,1,1.611-6.885,48.723,48.723,0,0,1,3.027-6.689q1.807-3.32,3.32-6.592a43.683,43.683,0,0,0,2.441-6.592,17.448,17.448,0,0,0,.537-6.738q-.1-.684-.391-2.637t-.635-4.541q-.342-2.588-.732-5.566t-.732-5.566q-.342-2.588-.635-4.541a22.534,22.534,0,0,1-.293-2.539,15.281,15.281,0,0,1,.635-6.738,11.408,11.408,0,0,1,2.393-4.2,3.423,3.423,0,0,1,2.588-1.27q1.221.1,1.221,1.953-.1,1.27-.146,4.395T16.8-66.943q0,3.564.049,6.689t.146,4.395a8.229,8.229,0,0,0,.2,1.367q.2.977.439,2.051t.537,2a5.64,5.64,0,0,0,.488,1.221q5.664-9.18,11.67-13.916t11.23-5.811a13.355,13.355,0,0,1,9.131.977,10.845,10.845,0,0,1,5.371,6.445q1.465,4.395.049,10.645T49.219-37.3a22.549,22.549,0,0,1-7.227,6.641,18.947,18.947,0,0,1-7.275,2.246,23.755,23.755,0,0,1-6.836-.391q-3.271-.684-5.859-1.27a18.027,18.027,0,0,0-4.346-.537,2.374,2.374,0,0,0-2.344,1.807q-.488,1.367-1.318,3.955T12.4-19.531Q11.621-16.8,10.938-14.6t-.781,2.686a10.735,10.735,0,0,0-.146,3.223,17.668,17.668,0,0,1-.146,3.955,7.515,7.515,0,0,1-1.318,3.32A3.993,3.993,0,0,1,5.078,0q-.2,0-.83-.635A4.511,4.511,0,0,1,3.418-1.66Zm23.73-32.227a7.84,7.84,0,0,0,5.859,1.953,14.3,14.3,0,0,0,5.957-1.953,25.421,25.421,0,0,0,7.422-6.494,25.337,25.337,0,0,0,4.053-7.666,21.271,21.271,0,0,0,1.025-7.52,12.931,12.931,0,0,0-1.709-6.1,7.538,7.538,0,0,0-4.15-3.369,8.59,8.59,0,0,0-6.2.684A28,28,0,0,0,31.4-58.35,69.066,69.066,0,0,0,21.973-45.8a9.436,9.436,0,0,0-.781,3.906,6.785,6.785,0,0,0,.928,3.076,10.22,10.22,0,0,0,2.2,2.588Q25.684-35.059,27.148-33.887Z"/>
    <path id="z" fill="#c2c7d0" transform="translate(1324 644.732)" d="M6.836-37.3a8.175,8.175,0,0,1-2.295-1.709,10.633,10.633,0,0,1-2-2.783,6.37,6.37,0,0,1-.732-3.076,3.239,3.239,0,0,1,1.611-2.588L45.8-76.27a13.1,13.1,0,0,0,4.1-3.711,2.308,2.308,0,0,0,.1-2.637,5.378,5.378,0,0,0-2.881-1.709,29.366,29.366,0,0,0-4.883-.977,48.955,48.955,0,0,0-5.957-.342q-3.174,0-6.006.1t-5.078.342a20.058,20.058,0,0,0-3.223.537q-2.93.781-3.467-.146t.537-2.344a11.859,11.859,0,0,1,3.32-2.783A10.665,10.665,0,0,1,27.148-91.5q1.27-.1,4.053-.2t6.152.1a55.9,55.9,0,0,1,6.836.83,21.009,21.009,0,0,1,6.055,2,9.011,9.011,0,0,1,3.809,3.564,6.79,6.79,0,0,1,.146,5.518,5.427,5.427,0,0,1-.537,1.172q-.439.781-.977,1.611t-1.074,1.514a3.449,3.449,0,0,1-.732.781l-37.3,25.391a11.036,11.036,0,0,0-1.9,2.051,9.193,9.193,0,0,0-1.562,2.93,3.2,3.2,0,0,0,.2,2.588q.635,1.123,3.271.928a37.2,37.2,0,0,0,4.395.244q3.125.049,6.641.049t6.641-.049a37.2,37.2,0,0,0,4.395-.244,11.081,11.081,0,0,0,2.051-.391q1.563-.391,3.613-.928t4.443-1.123q2.393-.586,4.443-1.123t3.613-.977q1.563-.439,2.051-.537h3.418a6.641,6.641,0,0,1,.146,2.93,2.455,2.455,0,0,1-1.807,2.148q-4.395,1.172-10.986,2.783a133.455,133.455,0,0,1-13.818,2.588A86.88,86.88,0,0,1,18.7-34.57,27.6,27.6,0,0,1,6.836-37.3Z"/>
    <path id="dot" fill="#c2c7d0" transform="translate(1345.367 632)" d="M5.047-1.129a3.519,3.519,0,0,1-.332-2.424A6.4,6.4,0,0,1,5.777-5.977,8.51,8.51,0,0,1,7.7-7.936,4.826,4.826,0,0,1,10.061-8.9a3.64,3.64,0,0,1,2.357.564,5.035,5.035,0,0,1,1.859,2.557,3.1,3.1,0,0,1,.1,2.225,4.706,4.706,0,0,1-1.229,1.926A7.657,7.657,0,0,1,11.09-.232a7.514,7.514,0,0,1-2.357.7A4.83,4.83,0,0,1,6.541.232,2.519,2.519,0,0,1,5.047-1.129Z"/>
  </g>
</svg>
